<svg width="40" height="40" viewBox="0 0 40 40" fill="none" xmlns="http://www.w3.org/2000/svg">
<g clip-path="url(#clip0_251_7735)">
<path d="M34.3895 34.5455H36.0316C36.7158 31.3409 36.7158 28.2045 36.0316 25H34.3895C33.7053 28.2045 33.7053 31.4091 34.3895 34.5455ZM26.1789 34.5455H27.8211C28.5053 31.3409 28.5053 28.2045 27.8211 25H26.1789C25.4947 28.2045 25.4947 31.4091 26.1789 34.5455ZM14 38.6364V40H40V38.6364H14Z" fill="#BBFB5B"/>
<path d="M39 36H15V38H39V36Z" fill="#BBFB5B"/>
<path d="M18 33.125H19.5C20.125 30.1875 20.125 27.3125 19.5 24.375H18C17.375 27.3125 17.375 30.25 18 33.125Z" fill="#BBFB5B"/>
<path d="M29 23H25V24H29V23Z" fill="#BBFB5B"/>
<path d="M26.9296 17.9231C25.1005 17.9231 23.4121 17.2308 22.005 16L13 21H41L31.8543 16C30.4472 17.2308 28.7588 17.9231 26.9296 17.9231Z" fill="#BBFB5B"/>
<path d="M38 23H34V24H38V23Z" fill="#BBFB5B"/>
<path d="M21 23H16V24H21V23Z" fill="#BBFB5B"/>
<path d="M21 9.26667C22.5978 9.26667 23.8324 10.4667 23.8324 11.9333C23.8324 12.8 23.3967 13.6 22.6704 14.0667C23.905 15.2667 25.648 16 27.4637 16C31.095 16 34 13.3333 34 10C34 6.66667 31.095 4 27.4637 4C24.1955 4 21.3631 6.33333 21 9.26667ZM30.1508 12.2667C31.4581 10.8667 31.0223 9.2 30.8771 8.93333C30.7318 8.6 30.9497 8.2 31.3128 8.06667C31.676 7.93333 32.1117 8.13333 32.257 8.46667C32.4022 8.93333 32.9106 11.3333 31.2402 13.1333C31.095 13.3333 30.7318 13.5333 30.2235 13.2C29.933 12.9333 29.933 12.5333 30.1508 12.2667ZM27.4637 10.6667C26.2291 10.6667 25.2849 9.8 25.2849 8.66667C25.2849 7.8 25.8659 7.06667 26.7374 6.8V6C26.7374 5.66667 27.1006 5.33333 27.4637 5.33333C27.8268 5.33333 28.1899 5.66667 28.1899 6V6.8C29.0615 7.06667 29.6425 7.8 29.6425 8.66667C29.6425 9 29.2793 9.33333 28.9162 9.33333C28.5531 9.33333 28.1899 9 28.1899 8.66667C28.1899 8.33333 27.8268 8 27.4637 8C27.1006 8 26.7374 8.33333 26.7374 8.66667C26.7374 9 27.1006 9.33333 27.4637 9.33333C28.6983 9.33333 29.6425 10.2 29.6425 11.3333C29.6425 12.2 29.0615 12.9333 28.1899 13.2V14C28.1899 14.3333 27.8268 14.6667 27.4637 14.6667C27.1006 14.6667 26.7374 14.3333 26.7374 14V13.2C25.8659 12.9333 25.2849 12.2 25.2849 11.3333C25.2849 11 25.648 10.6667 26.0112 10.6667C26.3743 10.6667 26.7374 11 26.7374 11.3333C26.7374 11.6667 27.1006 12 27.4637 12C27.8268 12 28.1899 11.6667 28.1899 11.3333C28.1899 11 27.8268 10.6667 27.4637 10.6667Z" fill="#BBFB5B"/>
<path d="M2 0H0V15H2V0Z" fill="#BBFB5B"/>
<path d="M22.2 12.5927C22.2 11.8187 21.57 11.1854 20.8 11.1854H16.88C16.04 11.1854 15.34 10.6225 15.2 9.77817C15.06 8.9338 15.55 8.23016 16.32 7.94871L20.66 6.4007C21.64 4.8527 23.18 3.65651 25 3.16396L19.89 0.349409C19.05 -0.00241024 18.07 -0.0727742 17.23 0.0679536L4 2.81214V12.6631C5.61 12.5927 7.78 13.5778 7.78 13.5778C8.62 13.8593 9.46 14 10.3 14H20.8C21.57 14 22.2 13.4371 22.2 12.5927ZM15.76 1.75669C15.76 1.75669 18.56 0.982684 20.31 1.82705C20.66 1.96778 20.87 2.38996 20.73 2.74178C20.45 3.37506 19.89 3.16396 19.82 3.16396C18.49 2.53069 15.97 3.0936 15.97 3.0936C15.62 3.16396 15.2 2.88251 15.2 2.53069C15.13 2.17887 15.41 1.82705 15.76 1.75669ZM13.24 3.79724C13.24 3.79724 11.77 4.07869 11.7 4.07869C11.35 4.07869 11.07 3.8676 11 3.51578C10.93 3.16396 11.14 2.74178 11.56 2.67142L12.96 2.38996C13.31 2.3196 13.73 2.53069 13.8 2.95287C13.87 3.37506 13.59 3.72687 13.24 3.79724Z" fill="#BBFB5B"/>
</g>
<defs>
<clipPath id="clip0_251_7735">
<rect width="40" height="40" fill="white"/>
</clipPath>
</defs>
</svg>
