<svg width="20" height="20" viewBox="0 0 20 20" fill="none" xmlns="http://www.w3.org/2000/svg">
<path fill-rule="evenodd" clip-rule="evenodd" d="M15.2082 8.74996C15.2082 12.3168 12.3167 15.2083 8.74984 15.2083C5.183 15.2083 2.2915 12.3168 2.2915 8.74996C2.2915 5.18312 5.183 2.29163 8.74984 2.29163C12.3167 2.29163 15.2082 5.18312 15.2082 8.74996ZM8.74984 16.4583C13.007 16.4583 16.4582 13.0072 16.4582 8.74996C16.4582 4.49276 13.007 1.04163 8.74984 1.04163C4.49264 1.04163 1.0415 4.49276 1.0415 8.74996C1.0415 13.0072 4.49264 16.4583 8.74984 16.4583ZM17.8512 17.8513C17.2087 18.4939 16.1668 18.4939 15.5242 17.8513L13.9635 16.2906C14.8719 15.6613 15.6612 14.872 16.2905 13.9636L17.8512 15.5243C18.4938 16.1669 18.4938 17.2088 17.8512 17.8513Z" fill="#A9BAD0"/>
</svg>
